<svg width="598" height="170" viewBox="44 45 598 170" fill="none" xmlns="http://www.w3.org/2000/svg">
<path fill-rule="evenodd" clip-rule="evenodd" d="M195.8 45.12L280.68 130L195.8 214.88L162.78 181.86L129.76 214.88L44.88 130L129.76 45.12L162.78 78.14L195.8 45.12ZM64.63 130L129.75 195.12V195.14L152.9 171.99L110.92 130.01L152.9 88.03L129.75 64.88L64.63 130ZM194.87 130L162.77 97.9L130.67 130L162.77 162.1L194.87 130ZM214.61 129.99L214.62 130V129.98L214.61 129.99ZM172.64 88.02L214.61 129.99L172.64 171.96L195.79 195.11L260.91 129.99L195.79 64.87L172.64 88.02ZM317.06 161.85L340.63 98.1501H340.64H360.02L383.86 161.85H365.57L362.19 151.57H338.23L334.81 161.85H317.06ZM350.1 115.89L342.62 138.37H357.85L350.46 115.89H350.1ZM451.29 98.1501H434.18V132.18H434L406.25 98.1501H390.96V161.85H408.07V126.63H408.25L436.82 161.85H451.29V98.1501ZM494.05 97.3301C500.97 97.3301 506.91 98.6801 511.89 101.38H511.88C516.86 104.08 520.68 107.89 523.35 112.8C526.02 117.71 527.35 123.54 527.35 130.09C527.35 136.64 525.95 142.36 523.16 147.24C520.37 152.13 516.48 155.92 511.51 158.62C506.54 161.32 500.9 162.67 494.04 162.67C487.18 162.67 481.28 161.32 476.34 158.62C471.39 155.92 467.59 152.11 464.92 147.2C462.25 142.29 460.92 136.46 460.92 129.91C460.92 123.36 462.3 117.63 465.06 112.71C467.82 107.79 471.71 104 476.71 101.33C481.72 98.6601 487.5 97.3301 494.05 97.3301ZM502.38 145.19C504.71 144.1 506.52 142.3 507.79 139.78V139.76C509.06 137.25 509.7 133.95 509.7 129.89C509.7 125.83 509.09 122.57 507.88 120.11C506.67 117.66 504.89 115.88 502.56 114.79C500.22 113.7 497.38 113.15 494.05 113.15C490.89 113.15 488.14 113.7 485.81 114.79C483.48 115.88 481.67 117.67 480.4 120.16C479.13 122.65 478.49 126.07 478.49 130.08C478.49 134.09 479.1 137.33 480.31 139.82C481.52 142.31 483.31 144.1 485.68 145.19C488.04 146.28 490.83 146.83 494.05 146.83C497.27 146.83 500.04 146.28 502.38 145.19ZM597.24 161.85V98.1501H580.13V132.18H579.95L552.2 98.1501H536.91V161.85H554.02V126.63H554.2L582.77 161.85H597.24Z" fill="white"/>
</svg>
